<?xml version="1.0" encoding="UTF-8" standalone="no"?>
<svg
   id="svg2172"
   viewBox="0 0 342 155"
   version="1.0"
   width="342"
   height="155"
   xmlns="http://www.w3.org/2000/svg"
   xmlns:svg="http://www.w3.org/2000/svg">
  <defs
     id="defs38" />
  <path
     id="path3335"
     d="m 341.56221,50.928636 -161.08,-46.6799995 c -14.98,-4.49599999 -57.26,-6.3154 -81.560997,5.1206 -28.16,13.2509995 -51.939,33.6499995 -66.569,54.8639995 -14.631,21.214 -30.3579998,50.477004 -31.45599982,59.257004 -1.09689997,8.77 4.96130002,23.34 17.92299982,27.43 13.899,4.39 45.33,5.69 96.192997,-1.83 32.31,-4.78 226.41,-76.810004 226.41,-76.810004 l 0.14,-21.352 z"
     fill-rule="evenodd"
     stroke="#c084fc"
     stroke-width="1.5362"
     style="fill:none;fill-opacity:1" />
  <path
     id="path4309"
     fill="#c084fc"
     fill-rule="evenodd"
     d="m 180.77221,41.517636 c -20.09,0.253 -50.55,19.281 -73.85,40.597 -1.07,0.972 -0.75,1.877 0.94,1.536 8.89,-1.792 33.51,-5.578 44.28,-6.257 16,-1.008 50.07,-3.436 84.94,-5.985 v -24.435 c -26.01,-2.808 -48.35,-5.122 -54.41,-5.424 -0.62,-0.032 -1.25,-0.041 -1.9,-0.032 z m 63.35,3.328 c -1.82,0 -3.28,5.093 -3.28,11.425 v 5.681 c 0,6.332 1.46,11.426 3.28,11.426 1.82,0 3.3,-5.094 3.3,-11.426 v -5.681 c 0,-6.332 -1.48,-11.425 -3.3,-11.425 z m 6.13,3.568 v 22.019 c 27,-1.982 50.09,-3.686 67.38,-4.976 v -9.554 c -17.89,-2.013 -41.53,-4.665 -67.38,-7.489 z m 69.24,7.697 v 9.202 c 3.59,-0.269 4.24,-0.309 7.15,-0.528 v -7.857 c -2.93,-0.331 -3.69,-0.427 -7.15,-0.817 z m 10.64,1.201 v 7.201 c 5,-0.376 11.11,-0.833 11.11,-0.833 v -5.12 c 0,0 -6.1,-0.685 -11.11,-1.248 z" />
  <path
     id="path7248"
     d="m 62.258213,107.15064 16.423,-21.208004 c -9.733,0.424 -20.131,1.989 -23.148,4.914 -3.084,2.989 -10.086,13.194004 -10.086,13.194004 z"
     fill-rule="evenodd"
     stroke="#c084fc"
     stroke-width="0.51207px"
     fill="#acf"
     style="fill:#c084fc;fill-opacity:1" />
  <path
     id="path7252"
     d="m 10.919213,100.04064 1.035,0.26 c 0,0 4.412,-7.731004 5.043,-9.444004 0.394,-1.07 0.129,-1.94 0.129,-1.94 z"
     fill-rule="evenodd"
     stroke="#c084fc"
     stroke-width="0.51207px"
     fill="#acf"
     style="fill:#c084fc;fill-opacity:1" />
  <path
     id="path7250"
     stroke="#c084fc"
     stroke-width="0.51207px"
     fill="none"
     d="m 8.0744132,105.21064 c 0,0 35.2979998,4.95 44.7439998,6.34 9.698,1.42 14.208,5.53 15.647,10.21 1.475,4.81 2.457,24.44 -3.362,32.2" />
  <path
     id="path11134"
     stroke="#c084fc"
     stroke-width="0.51207px"
     fill="none"
     d="m 311.90221,42.298636 c 2.5,1.39 6.49,5.849 6.53,12.414 l 0.13,18.427 c 0.02,3.314 -0.27,5.89 -1.25,7.965" />
  <path
     id="path11142"
     fill-rule="evenodd"
     d="m 328.46221,56.849636 c -0.53,0 -0.95,1.488 -0.95,3.338 v 1.659 c 0,1.85 0.42,3.339 0.95,3.339 0.54,0 0.97,-1.489 0.97,-3.339 v -1.659 c 0,-1.85 -0.43,-3.338 -0.97,-3.338 z" />
  <path
     id="path12118"
     fill-rule="evenodd"
     fill="#c084fc"
     d="m 327.01221,74.929636 -6.67,2.064 0.19,2.833 6.45,-2.289 z m -11.6,3.52 -7.78,2.241 0.18,3.888 7.77,-2.832 z m -84.36,24.911004 c -22.41,6.51 -45.36,11.92 -68.49,17.21 -2.56,0.87 -14.6,15.49 -17.29,20.29 30.91,-9.6 85.33,-28.71 85.33,-28.71 z" />
  <path
     id="path12116"
     stroke="#c084fc"
     stroke-width="0.51207px"
     fill="none"
     d="m 69.241213,136.76064 c 41.120997,-3.36 124.139997,-22.24 167.079997,-34.91 42.93,-12.675004 105.26,-31.297004 105.26,-31.297004" />
</svg>
